HIERARCHY
ROOT Hips
{
	OFFSET 0.000000 0.000000 0.000000
	CHANNELS 6 Xposition Yposition Zposition Zrotation Yrotation Xrotation 
	JOINT LHipJoint
	{
		OFFSET 0.000000 0.000000 0.000000
		CHANNELS 3 Zrotation Yrotation Xrotation
		JOINT LeftUpLeg
		{
			OFFSET 1.363060 -1.794630 0.839290
			CHANNELS 3 Zrotation Yrotation Xrotation
			JOINT LeftLeg
			{
				OFFSET 2.448110 -6.726130 0.000000
				CHANNELS 3 Zrotation Yrotation Xrotation
				JOINT LeftFoot
				{
					OFFSET 2.562200 -7.039590 0.000000
					CHANNELS 3 Zrotation Yrotation Xrotation
					JOINT LeftToeBase
					{
						OFFSET 0.157640 -0.433110 2.322550
						CHANNELS 3 Zrotation Yrotation Xrotation
						End Site
						{
							OFFSET 0.000000 0.000000 0.000000
						}
					}
				}
			}
		}
	}
	JOINT RHipJoint
	{
		OFFSET 0.000000 0.000000 0.000000
		CHANNELS 3 Zrotation Yrotation Xrotation
		JOINT RightUpLeg
		{
			OFFSET -1.305520 -1.794630 0.839290
			CHANNELS 3 Zrotation Yrotation Xrotation
			JOINT RightLeg
			{
				OFFSET -2.542530 -6.985550 0.000000
				CHANNELS 3 Zrotation Yrotation Xrotation
				JOINT RightFoot
				{
					OFFSET -2.568260 -7.056230 0.000000
					CHANNELS 3 Zrotation Yrotation Xrotation
					JOINT RightToeBase
					{
						OFFSET -0.164730 -0.452590 2.363150
						CHANNELS 3 Zrotation Yrotation Xrotation
						End Site
						{
							OFFSET 0.000000 0.000000 0.000000
						}
					}
				}
			}
		}
	}
	JOINT LowerBack
	{
		OFFSET 0.000000 0.000000 0.000000
		CHANNELS 3 Zrotation Yrotation Xrotation
		JOINT Spine
		{
			OFFSET 0.028270 2.035590 -0.193380
			CHANNELS 3 Zrotation Yrotation Xrotation
			JOINT Spine1
			{
				OFFSET 0.056720 2.048850 -0.042750
				CHANNELS 3 Zrotation Yrotation Xrotation
				JOINT Neck
				{
					OFFSET 0.000000 0.000000 0.000000
					CHANNELS 3 Zrotation Yrotation Xrotation
					JOINT Neck1
					{
						OFFSET -0.054170 1.746240 0.172020
						CHANNELS 3 Zrotation Yrotation Xrotation
						JOINT Head
						{
							OFFSET 0.104070 1.761360 -0.123970
							CHANNELS 3 Zrotation Yrotation Xrotation
							End Site
							{
								OFFSET 0.000000 0.000000 0.000000
							}
						}
					}
				}
				JOINT LeftShoulder
				{
					OFFSET 0.000000 0.000000 0.000000
					CHANNELS 3 Zrotation Yrotation Xrotation
					JOINT LeftArm
					{
						OFFSET 3.362410 1.200890 -0.311210
						CHANNELS 3 Zrotation Yrotation Xrotation
						JOINT LeftForeArm
						{
							OFFSET 4.983000 -0.000000 -0.000000
							CHANNELS 3 Zrotation Yrotation Xrotation
							JOINT LeftHand
							{
								OFFSET 3.483560 -0.000000 -0.000000
								CHANNELS 3 Zrotation Yrotation Xrotation
								JOINT LeftFingerBase
								{
									OFFSET 0.000000 0.000000 0.000000
									CHANNELS 3 Zrotation Yrotation Xrotation
									JOINT LeftHandIndex1
									{
										OFFSET 0.715260 -0.000000 -0.000000
										CHANNELS 3 Zrotation Yrotation Xrotation
										End Site
										{
											OFFSET 0.000000 0.000000 0.000000
										}
									}
								}
								JOINT LThumb
								{
									OFFSET 0.000000 0.000000 0.000000
									CHANNELS 3 Zrotation Yrotation Xrotation
									End Site
									{
										OFFSET 0.000000 0.000000 0.000000
									}
								}
							}
						}
					}
				}
				JOINT RightShoulder
				{
					OFFSET 0.000000 0.000000 0.000000
					CHANNELS 3 Zrotation Yrotation Xrotation
					JOINT RightArm
					{
						OFFSET -3.136600 1.374050 -0.404650
						CHANNELS 3 Zrotation Yrotation Xrotation
						JOINT RightForeArm
						{
							OFFSET -5.241900 -0.000000 -0.000000
							CHANNELS 3 Zrotation Yrotation Xrotation
							JOINT RightHand
							{
								OFFSET -3.444170 -0.000000 -0.000000
								CHANNELS 3 Zrotation Yrotation Xrotation
								JOINT RightFingerBase
								{
									OFFSET 0.000000 0.000000 0.000000
									CHANNELS 3 Zrotation Yrotation Xrotation
									JOINT RightHandIndex1
									{
										OFFSET -0.622530 -0.000000 -0.000000
										CHANNELS 3 Zrotation Yrotation Xrotation
										End Site
										{
											OFFSET 0.000000 0.000000 0.000000
										}
									}
								}
								JOINT RThumb
								{
									OFFSET 0.000000 0.000000 0.000000
									CHANNELS 3 Zrotation Yrotation Xrotation
									End Site
									{
										OFFSET 0.000000 0.000000 0.000000
									}
								}
							}
						}
					}
				}
			}
		}
	}
}
MOTION
Frames: 11
Frame Time: 0.008333
34.705615 17.619652 -0.537127 -0.630291 -48.423375 -5.443689 6.960718 0.984107 -0.337707 -27.088120 -12.334886 8.760398 -1.093203 7.177502 21.977269 -4.138999 20.028677 -20.960218 0.017700 0.858800 2.360500 -8.385820 0.159209 -1.913744 30.208893 16.850507 3.853191 -0.862270 -9.790826 26.430472 2.926604 -23.274610 -31.842340 -0.452600 4.316000 -11.967400 -2.058572 -0.128825 6.446150 2.019816 0.036102 2.374271 -3.865077 -0.353363 3.339359 -3.724181 -9.003958 -0.253422 12.751850 -13.567921 10.029192 1.954400 -6.314200 3.164900 7.076965 4.006139 -0.832813 -93.154177 1.522321 35.805462 13.069674 -16.825212 -3.476385 -1.730230 -2.163732 1.600385 15.369304 1.183914 1.058100 -7.125000 0.000000 0.000000 -7.799500 33.513500 2.214000 -11.669471 -4.853790 0.553566 101.028888 -2.358985 53.447217 -15.320956 23.993272 -5.657344 0.176057 2.763385 -27.774104 -14.965955 -0.360469 0.820400 7.125000 0.000000 0.000000 8.231400 -32.803000 2.481500 
34.706875 17.624579 -0.541251 -1.048268 -48.469261 -5.008531 6.955927 0.968825 -0.341496 -26.749614 -12.449337 8.450673 -1.037625 7.301686 22.317766 -4.099793 19.897369 -20.975889 0.024700 1.013800 2.786900 -8.399339 0.178595 -1.894419 30.563489 17.069478 3.980953 -0.784676 -9.664344 26.019751 2.957329 -23.434754 -31.948203 -0.417400 4.146800 -11.490000 -1.773228 -0.087669 6.362511 2.027577 0.101544 2.350437 -3.941806 -0.307011 3.266150 -3.599010 -9.037776 -0.152682 12.733478 -13.620905 10.014511 1.933200 -6.342300 3.126100 7.120454 4.048559 -0.849403 -93.056301 1.773935 35.945585 13.097636 -16.938576 -3.520410 -1.721113 -2.158565 1.490064 15.330549 1.074888 1.019300 -7.125000 0.000000 0.000000 -7.822000 33.390400 2.244000 -11.667347 -4.889362 0.563076 101.231992 -2.374058 53.287555 -15.281908 23.978169 -5.695736 0.068663 2.732516 -27.861819 -14.021335 -0.743414 0.873600 7.125000 0.000000 0.000000 9.123500 -33.175000 2.673100 
34.705157 17.633974 -0.548240 -2.006179 -48.566901 -4.040926 6.925062 0.962346 -0.354489 -25.907805 -12.512143 8.021920 -0.991013 7.371914 22.550189 -4.069655 19.720616 -20.888269 0.033100 1.175200 3.231100 -8.457004 0.221357 -1.840617 31.385506 17.597259 3.957811 -0.707988 -9.622045 25.745049 2.953562 -23.633712 -32.324735 -0.388200 4.001000 -11.079400 -1.226031 -0.074595 6.139277 2.118217 0.137216 2.333032 -3.895279 -0.288425 3.307091 -3.608891 -9.027301 -0.208630 12.710044 -13.595443 10.011330 1.924800 -6.329500 3.137900 7.144715 4.047846 -0.856094 -93.113181 1.906536 35.860370 13.114928 -16.991949 -3.538363 -1.716912 -2.171936 1.451726 15.325781 1.094533 1.028600 -7.125000 0.000000 0.000000 -7.831600 33.423300 2.240500 -11.641178 -4.892232 0.556164 101.185586 -2.164433 53.530453 -15.272997 23.925467 -5.665312 0.080846 2.757175 -28.421247 -14.305065 -0.733800 0.891900 7.125000 0.000000 0.000000 8.857000 -33.181000 2.592000 
34.713979 17.633401 -0.549501 -1.898453 -48.501811 -4.123604 6.933850 0.946145 -0.355598 -26.010501 -12.570918 7.876262 -0.964065 7.458320 22.752915 -4.035459 19.661717 -20.987030 0.030400 1.125400 3.093800 -8.442736 0.221476 -1.850578 31.279233 17.560976 4.058074 -0.680429 -9.540462 25.539685 3.017003 -23.828126 -32.292939 -0.398700 4.054100 -11.229000 -1.232160 0.013046 6.251242 2.085940 0.253009 2.321059 -3.976086 -0.219779 3.222373 -3.526167 -9.143417 -0.223907 12.727748 -13.751526 10.047670 1.912400 -6.400400 3.182100 7.199060 4.064840 -0.871627 -92.984526 2.052829 36.268889 13.176600 -17.145760 -3.597832 -1.711038 -2.214901 1.323571 15.382002 1.243655 1.090000 -7.125000 0.000000 0.000000 -7.807600 33.620700 2.195900 -11.691639 -4.882877 0.542716 101.265806 -2.263884 53.549134 -15.459613 24.111300 -5.699178 0.080488 2.947587 -28.823617 -15.761073 -1.827382 1.377400 7.125000 0.000000 0.000000 7.729000 -34.539700 1.999700 
34.723832 17.635807 -0.550532 -2.073557 -48.472417 -3.924088 6.933193 0.934965 -0.357964 -25.876296 -12.634365 7.664362 -0.938885 7.525540 22.919135 -4.002257 19.562072 -21.012417 0.035100 1.209800 3.326300 -8.441901 0.227594 -1.847328 31.349586 17.580967 4.028506 -0.651985 -9.492583 25.375559 3.055487 -23.932947 -32.254357 -0.396600 4.043700 -11.199700 -1.020855 0.057892 6.292542 2.073969 0.321882 2.305972 -4.105282 -0.170675 3.170447 -3.442178 -9.206996 -0.246235 12.730211 -13.836101 10.050641 1.900100 -6.438900 3.204200 7.261362 4.080486 -0.889492 -92.879596 2.231065 36.609581 13.273343 -17.361265 -3.679244 -1.702217 -2.276503 1.111690 15.461924 1.439450 1.172800 -7.125000 0.000000 0.000000 -7.771100 33.884500 2.135300 -11.741357 -4.879116 0.535376 101.347138 -2.307153 53.750733 -15.628123 24.301603 -5.756694 0.075041 3.074087 -29.414922 -16.733528 -2.512319 1.728000 7.125000 0.000000 0.000000 6.948400 -35.408100 1.647400 
34.736665 17.637411 -0.549615 -2.129640 -48.425609 -3.836577 6.934133 0.928384 -0.359862 -25.832232 -12.644009 7.512602 -0.931572 7.553751 22.970922 -3.986406 19.494333 -20.967800 0.038600 1.267900 3.486300 -8.433884 0.225813 -1.849941 31.279267 17.497346 3.897933 -0.650677 -9.494881 25.359385 3.081506 -23.946142 -32.127086 -0.402200 4.071500 -11.277800 -0.849653 0.096178 6.365681 2.047453 0.381698 2.296041 -4.266786 -0.123726 3.133454 -3.352422 -9.262784 -0.278982 12.737306 -13.912025 10.046993 1.889400 -6.472900 3.226800 7.343407 4.096167 -0.911256 -92.756912 2.431259 37.064423 13.428886 -17.683042 -3.801088 -1.686670 -2.381826 0.778754 15.594955 1.806848 1.326300 -7.125000 0.000000 0.000000 -7.716300 34.370700 2.028300 -11.816656 -4.874335 0.529167 101.420904 -2.392273 54.101940 -15.874643 24.608726 -5.869413 0.064674 3.209861 -30.281823 -17.803988 -3.199813 2.126600 7.125000 0.000000 0.000000 6.063000 -36.299800 1.302900 
34.751216 17.637526 -0.547095 -2.033984 -48.361394 -3.911541 6.940605 0.923054 -0.360872 -25.922554 -12.621925 7.414884 -0.926935 7.578993 23.006088 -3.979227 19.451929 -20.892096 0.039200 1.278200 3.514700 -8.414377 0.213396 -1.865457 31.060626 17.281963 3.771367 -0.659916 -9.495961 25.367706 3.108726 -23.904383 -31.894497 -0.413100 4.125700 -11.430600 -0.757457 0.127616 6.483654 2.006310 0.429734 2.295427 -4.438342 -0.081176 3.114906 -3.250771 -9.295595 -0.315172 12.744615 -13.959751 10.037838 1.876400 -6.492700 3.243600 7.446423 4.114105 -0.936866 -92.619203 2.665374 37.612518 13.649400 -18.122357 -3.971566 -1.661227 -2.521387 0.340453 15.760728 2.301667 1.534400 -7.125000 0.000000 0.000000 -7.657900 35.024100 1.890100 -11.913567 -4.870685 0.526103 101.486033 -2.511522 54.574868 -16.192380 25.029625 -6.048351 0.036310 3.335589 -31.397270 -18.753162 -3.830157 2.520600 7.125000 0.000000 0.000000 5.264800 -37.126800 1.023300 
34.765308 17.636724 -0.544001 -1.844711 -48.298844 -4.081354 6.948792 0.919986 -0.363917 -26.072123 -12.532891 7.350943 -0.926213 7.590796 23.002323 -3.986287 19.428981 -20.737056 0.036100 1.227000 3.373700 -8.391469 0.195889 -1.884857 30.771301 17.024133 3.638939 -0.679922 -9.510783 25.428170 3.124242 -23.811016 -31.636906 -0.425800 4.188100 -11.606500 -0.746790 0.157449 6.606545 1.960059 0.470893 2.303981 -4.579833 -0.042915 3.129167 -3.147699 -9.292099 -0.356858 12.751152 -13.961016 10.027585 1.861800 -6.489200 3.254600 7.570306 4.132628 -0.965228 -92.473000 2.938242 38.196262 13.934192 -18.677354 -4.194969 -1.623064 -2.674079 -0.145624 15.918486 2.832527 1.759700 -7.125000 0.000000 0.000000 -7.620800 35.728100 1.749100 -12.024074 -4.869351 0.525813 101.525860 -2.632296 55.153252 -16.569515 25.540775 -6.287049 -0.004582 3.442057 -32.692944 -19.545197 -4.327406 2.861900 7.125000 0.000000 0.000000 4.580700 -37.792600 0.814800 
34.778370 17.635005 -0.541366 -1.650409 -48.230205 -4.291180 6.958555 0.919609 -0.368565 -26.234940 -12.428703 7.339865 -0.925348 7.594593 22.985312 -4.007621 19.439148 -20.543455 0.030000 1.118300 3.074300 -8.369991 0.177581 -1.905369 30.505856 16.776902 3.553821 -0.703508 -9.530610 25.513570 3.122456 -23.692598 -31.435151 -0.436000 4.237100 -11.744700 -0.759921 0.192175 6.753112 1.912691 0.516641 2.321052 -4.700742 -0.002722 3.160483 -3.032394 -9.262834 -0.392394 12.750144 -13.929393 10.028486 1.841500 -6.468500 3.262900 7.715850 4.150533 -0.995995 -92.297388 3.249587 38.826395 14.280062 -19.339716 -4.474004 -1.573926 -2.822738 -0.631962 16.052252 3.329600 1.972900 -7.125000 0.000000 0.000000 -7.608900 36.393000 1.622000 -12.141489 -4.866606 0.529256 101.551417 -2.734535 55.750091 -16.987017 26.113748 -6.580204 -0.067033 3.518920 -34.048636 -20.018168 -4.713854 3.116800 7.125000 0.000000 0.000000 4.172800 -38.301900 0.689700 
34.787765 17.632714 -0.540564 -1.525987 -48.175436 -4.447137 6.966301 0.920317 -0.377054 -26.317641 -12.284446 7.313789 -0.917578 7.602459 22.991377 -4.030514 19.437374 -20.309506 0.021700 0.950100 2.611600 -8.356979 0.165204 -1.918770 30.355152 16.634043 3.529973 -0.720309 -9.546889 25.583111 3.111950 -23.611217 -31.352031 -0.441200 4.261800 -11.814300 -0.782504 0.245121 6.874468 1.871511 0.584846 2.341705 -4.774459 0.046332 3.218370 -2.887180 -9.199160 -0.445799 12.725104 -13.850892 10.057497 1.801800 -6.421400 3.276700 7.888784 4.168939 -1.030670 -92.082494 3.608759 39.518589 14.692109 -20.114056 -4.813951 -1.521344 -2.965367 -1.094968 16.199583 3.787759 2.176200 -7.125000 0.000000 0.000000 -7.584600 37.014600 1.500600 -12.258377 -4.864265 0.533291 101.557934 -2.809446 56.369918 -17.428593 26.711389 -6.901755 -0.134659 3.580290 -35.308661 -20.367152 -5.063629 3.339900 7.125000 0.000000 0.000000 3.876800 -38.756100 0.597400 
34.793723 17.630193 -0.542397 -1.519243 -48.124892 -4.512586 6.974074 0.921236 -0.388865 -26.297120 -12.142984 7.265195 -0.898673 7.624489 23.051398 -4.048562 19.416208 -20.075942 0.013300 0.745800 2.049600 -8.352333 0.162791 -1.923347 30.365010 16.629407 3.595684 -0.723343 -9.548968 25.604577 3.091722 -23.589204 -31.434867 -0.433500 4.225100 -11.710800 -0.748276 0.343299 6.980082 1.821602 0.716808 2.365880 -4.872177 0.130252 3.297389 -2.655907 -9.134584 -0.517938 12.689116 -13.775269 10.117846 1.740500 -6.370800 3.302000 8.096622 4.183859 -1.069473 -91.734688 3.993875 40.431365 15.181973 -21.015291 -5.227787 -1.465350 -3.106343 -1.570556 16.378678 4.241171 2.384800 -7.125000 0.000000 0.000000 -7.535500 37.633300 1.375800 -12.375402 -4.856939 0.538384 101.636743 -2.861222 56.879829 -17.883172 27.307257 -7.234615 -0.196142 3.632401 -36.420273 -20.680888 -5.358776 3.537200 7.125000 0.000000 0.000000 3.607900 -39.143800 0.521400 
